<svg width="82" height="30" viewBox="0 0 82 30" fill="none" xmlns="http://www.w3.org/2000/svg">
<path fill-rule="evenodd" clip-rule="evenodd" d="M81.458 11.6953C81.0914 10.5642 80.5812 9.5409 79.8639 8.64836C79.1465 7.75583 78.2698 7.10951 77.2336 6.62477C76.9387 6.47088 76.58 6.317 76.2771 6.24005C76.2771 6.24005 76.1655 6.1785 76.0619 6.1785C76.0141 6.1785 75.9583 6.1785 75.9025 6.12464C75.8627 6.12464 75.8069 6.12464 75.8069 6.07078L75.0497 5.91689C74.4917 5.82456 73.7744 5.7784 72.9454 5.82456C71.718 5.87842 70.634 6.13233 69.6775 6.56321C68.6413 7.05565 67.7646 7.74813 67.0472 8.57912C66.3299 9.47165 65.8197 10.4488 65.4531 11.6337C65.1024 12.7571 64.943 14.0344 64.943 15.3116C64.943 16.6427 65.1024 17.8738 65.4611 19.0049C65.8277 20.1359 66.3936 21.1593 67.0552 22.0056C67.5733 22.5981 68.1312 23.0828 68.8087 23.5291C69.1116 23.7292 69.3666 23.8753 69.6855 24.0215H69.7253C69.7253 24.0215 69.7731 24.0215 69.7731 24.0677C69.8073 24.0677 69.8232 24.0832 69.8379 24.0975C69.8506 24.11 69.8625 24.1216 69.8847 24.1216C70.4028 24.3678 70.9687 24.5063 71.5825 24.614C73.3758 24.9526 74.9142 24.714 74.9142 24.714C75.7351 24.614 76.5083 24.3678 77.2256 24.0677C78.3017 23.5753 79.1704 22.8905 79.8958 22.0518C80.6131 21.2208 81.1232 20.1821 81.4899 19.051C81.8406 17.92 82 16.6889 82 15.3578C82 14.0344 81.7928 12.8033 81.4819 11.6645L81.458 11.6953ZM69.4464 12.7725C69.6536 12.0031 69.9086 11.2567 70.2673 10.6643C70.626 10.0795 71.0883 9.58707 71.5984 9.24852C72.1165 8.90227 72.7302 8.70992 73.3918 8.70992C74.0613 8.70992 74.6272 8.84841 75.1453 9.19466C75.6554 9.53321 76.0619 9.96409 76.4206 10.5181C76.7793 11.1105 77.0423 11.7492 77.2416 12.534C77.4568 13.3188 77.5604 14.1113 77.5604 14.9961V15.2885C77.5604 16.1734 77.4568 17.0582 77.3053 17.843C77.0981 18.6355 76.843 19.3203 76.4844 19.9205C76.1257 20.5053 75.6634 20.9438 75.1453 21.2901C74.6352 21.6363 74.0294 21.7825 73.3519 21.7825C72.6824 21.7825 72.0766 21.6286 71.5586 21.2901C71.0405 20.9438 70.5782 20.5053 70.2195 19.9051C69.8528 19.3203 69.5978 18.6355 69.3906 17.843C69.1913 17.0582 69.1355 16.1734 69.1355 15.2885C69.1913 14.4422 69.2949 13.565 69.4543 12.7802L69.4464 12.7725ZM58.1999 24.8833L56.2072 27.0916L56 27.2916L56.2072 30H59.2839L62.5199 26.5068V15.3962L62.4243 14.5499L58.1999 16.6581V24.8833Z" fill="white"/>
<path fill-rule="evenodd" clip-rule="evenodd" d="M32.2789 5.05332L30.2657 2.90718L30 2.72453L30.2094 0L33.3097 0.0456626L36.6435 3.5008V14.7414L36.5469 15.3655L32.2789 13.2345V5.05332ZM60.8499 8.07466C61.5747 8.95747 62.09 9.96966 62.4605 11.0884L62.4766 11.0579C62.8389 12.1843 63 13.402 63 14.711C63 16.0276 62.8389 17.2452 62.4846 18.364C62.1142 19.4827 61.5988 20.5101 60.8741 21.332C60.1493 22.1616 59.2635 22.8389 58.1764 23.326C57.4517 23.6228 56.6706 23.8663 55.8411 23.9652C55.8411 23.9652 54.287 24.2012 52.4751 23.8663C51.8551 23.7598 51.2833 23.6228 50.7679 23.3792C50.7387 23.3792 50.7246 23.3649 50.7111 23.3511C50.6985 23.3383 50.6865 23.326 50.6633 23.326C50.6633 23.2803 50.6069 23.2803 50.6069 23.2803H50.5666C50.2445 23.1357 49.9868 22.9911 49.6808 22.7932C49.0044 22.3518 48.4327 21.8724 47.9092 21.2864C47.2409 20.4492 46.6691 19.437 46.2987 18.3183C45.9444 17.1996 45.7833 15.9819 45.7833 14.6653C45.7833 13.402 45.9363 12.1386 46.2906 11.0275C46.6611 9.8555 47.1764 8.88898 47.9012 8.00617C48.6259 7.18424 49.5117 6.4993 50.5586 6.01224C51.5249 5.58605 52.6201 5.33491 53.8602 5.28163C54.6977 5.23597 55.4224 5.28163 55.9861 5.37296L56.7511 5.52517C56.7511 5.57844 56.8075 5.57844 56.8477 5.57844C56.9122 5.63171 56.9605 5.63171 57.0088 5.63171C57.1135 5.63171 57.2262 5.6926 57.2262 5.6926C57.5322 5.7687 57.8946 5.92091 58.1925 6.07312C59.2394 6.55258 60.1252 7.19185 60.8499 8.07466ZM51.2028 10.0686C50.8404 10.6546 50.5827 11.3928 50.3814 12.1539L50.3895 12.1615C50.1828 12.9278 50.1252 13.7832 50.0695 14.6105V14.6105L50.0674 14.6425C50.0674 15.5177 50.1157 16.3929 50.325 17.1691C50.5344 17.953 50.7921 18.6303 51.1545 19.2087C51.5168 19.8023 51.9839 20.2361 52.4993 20.5786C53.0227 20.9135 53.6428 21.0657 54.3272 21.0657C54.9956 21.0657 55.6237 20.9211 56.1391 20.5786C56.6545 20.2361 57.1215 19.8023 57.4758 19.2239C57.8382 18.6303 58.104 17.953 58.3053 17.1691C58.4663 16.3929 58.5791 15.5177 58.5791 14.6425V14.3533C58.5791 13.4781 58.4663 12.6942 58.257 11.9179C58.0476 11.1417 57.7899 10.51 57.4275 9.924C57.0652 9.37605 56.6464 8.94986 56.1391 8.615C55.6157 8.27253 55.0439 8.13555 54.3675 8.13555C53.683 8.13555 53.071 8.32581 52.5556 8.66828C52.0322 9.00313 51.5652 9.4902 51.2028 10.0686ZM38.9627 5.35774H43.3111V24.1935H38.9627V5.35774Z" fill="white"/>
<path fill-rule="evenodd" clip-rule="evenodd" d="M41.0067 0.967743C39.9064 0.967743 39.0134 1.8369 39.0134 2.90782C39.0134 4.03306 39.9064 4.89445 41.0067 4.84789C42.107 4.84789 43 3.97874 43 2.90782C43 1.8369 42.107 0.967743 41.0067 0.967743ZM14.926 8.87548C15.6436 9.77568 16.1539 10.8078 16.5207 11.9486L16.5366 11.9175C16.8954 13.066 17.0549 14.3077 17.0549 15.6425C17.0549 16.985 16.8954 18.2266 16.5446 19.3674C16.1778 20.5082 15.6675 21.5558 14.9499 22.3939C14.2323 23.2398 13.3553 23.9305 12.2789 24.4271C11.5613 24.7298 10.7879 24.9781 9.96662 25.079C9.96662 25.079 8.42778 25.3196 6.63378 24.9781C6.01984 24.8695 5.45374 24.7298 4.93547 24.4814C4.88763 24.4814 4.88763 24.4814 4.83979 24.4271C4.83979 24.3806 4.78398 24.3806 4.78398 24.3806H4.74411C4.42518 24.2331 4.17004 24.0857 3.86705 23.8839C3.19729 23.4338 2.63119 22.9449 2.11292 22.3474C1.39533 21.4937 0.885036 20.5082 0.518264 19.3208C0.159466 18.1801 0 16.9384 0 15.5959C0 14.3077 0.159466 13.0195 0.510291 11.8865C0.877063 10.6914 1.38735 9.70584 2.10495 8.80564C2.82255 7.96753 3.69961 7.2691 4.73614 6.77244C5.69293 6.33787 6.7773 6.08178 8.00519 6.02746C8.83441 5.98089 9.55201 6.02746 10.1101 6.12058L10.8676 6.27578C10.8676 6.33011 10.9234 6.33011 10.9633 6.33011C11.0271 6.38443 11.0749 6.38443 11.1228 6.38443C11.2264 6.38443 11.338 6.44651 11.338 6.44651C11.641 6.52411 11.9998 6.67932 12.2948 6.83453C13.3314 7.32343 14.2084 7.97529 14.926 8.87548ZM35.9835 11.9486C35.6167 10.8078 35.1064 9.77568 34.3888 8.87548C33.6712 7.97529 32.7942 7.32343 31.7577 6.83453C31.4626 6.67932 31.1038 6.52411 30.8009 6.44651C30.8009 6.44651 30.6892 6.38443 30.5856 6.38443C30.5377 6.38443 30.4819 6.38443 30.4261 6.33011C30.3783 6.33011 30.3304 6.33011 30.3304 6.27578L29.565 6.12058C29.0069 6.02746 28.2893 5.98089 27.468 6.02746C26.2401 6.08178 25.1558 6.33787 24.199 6.77244C23.1624 7.2691 22.2854 7.96753 21.5678 8.80564C20.8502 9.70584 20.3399 10.6914 19.9731 11.8865C19.6223 13.0195 19.4628 14.3077 19.4628 15.5959C19.4628 16.9384 19.6223 18.1801 19.9811 19.3208C20.3479 20.4616 20.906 21.4937 21.5758 22.3474C22.094 22.9449 22.6521 23.4338 23.3299 23.8839C23.6329 24.0857 24.2468 24.3806 24.2468 24.3806C24.2468 24.3806 24.2946 24.3806 24.2946 24.4271C24.3288 24.4271 24.3447 24.4427 24.3594 24.4572C24.3722 24.4697 24.3841 24.4814 24.4063 24.4814C24.9245 24.7298 25.4827 24.8695 26.1046 24.9781C27.8986 25.3196 29.4374 25.079 29.4374 25.079C30.2587 24.9781 31.0321 24.7298 31.7497 24.4271C32.8261 23.9305 33.6952 23.2398 34.4207 22.3939C35.1383 21.5558 35.6486 20.5082 36.0154 19.3674C36.3662 18.2266 36.5177 16.985 36.5177 15.6425C36.5177 14.3077 36.3184 13.066 36.0074 11.9175L35.9835 11.9486ZM23.9677 13.035C24.175 12.259 24.4302 11.5062 24.789 10.9087C25.1478 10.3189 25.6102 9.82224 26.1205 9.48079C26.6388 9.13158 27.2527 8.93757 27.9145 8.93757C28.5843 8.93757 29.1504 9.07726 29.6686 9.42647C30.1789 9.76792 30.5856 10.2025 30.9444 10.7612C31.3032 11.3588 31.5583 12.0029 31.7656 12.7944C31.9809 13.586 32.0845 14.3853 32.0845 15.2777V15.5726C32.0845 16.4651 31.9809 17.3575 31.8294 18.149C31.6221 18.9484 31.3669 19.639 31.0082 20.2443C30.6494 20.8341 30.1869 21.2764 29.6686 21.6257C29.1583 21.9749 28.5524 22.1223 27.8746 22.1223C27.2049 22.1223 26.5989 21.9671 26.0807 21.6257C25.5624 21.2764 25.0999 20.8341 24.7411 20.2288C24.3744 19.639 24.1192 18.9484 23.9119 18.149C23.7126 17.3575 23.6568 16.4651 23.6568 15.5726C23.7126 14.719 23.8162 13.8343 23.9757 13.0428L23.9677 13.035ZM4.56073 13.035C4.76007 12.259 5.01521 11.5062 5.37401 10.9087C5.73281 10.3189 6.19526 9.82224 6.71352 9.48079C7.22382 9.13158 7.82979 8.93757 8.50752 8.93757C9.17727 8.93757 9.74338 9.07726 10.2616 9.42647C10.764 9.76792 11.1786 10.2025 11.5374 10.7612C11.8962 11.3588 12.1513 12.0029 12.3586 12.7944C12.5659 13.586 12.6776 14.3853 12.6776 15.2777L12.6616 15.5726C12.6616 16.4651 12.5659 17.3575 12.4065 18.149C12.2071 18.9484 11.944 19.639 11.5852 20.2443C11.2344 20.8341 10.7719 21.2764 10.2616 21.6257C9.75135 21.9749 9.12943 22.1223 8.46765 22.1223C7.78992 22.1223 7.17598 21.9671 6.65771 21.6257C6.14742 21.2764 5.68497 20.8341 5.32617 20.2288C5.00724 19.7399 4.76804 19.0492 4.55276 18.2111C4.34546 17.4118 4.28964 16.5039 4.28964 15.6192C4.28964 14.7268 4.34546 13.8343 4.54479 13.0428L4.56073 13.035Z" fill="white"/>
</svg>
